<svg id="Layer_1" data-name="Layer 1" xmlns="http://www.w3.org/2000/svg" viewBox="0 0 100 100"><defs><style>.cls-1{fill:#fff;}.cls-2{fill:#414042;}</style></defs><rect class="cls-1" width="100" height="100"/><path class="cls-2" d="M13.62,57.26a35.83,35.83,0,0,1,1.56-11.17,35.2,35.2,0,0,1,10.3-16.32A39.08,39.08,0,0,1,30.35,26V23.89A34.18,34.18,0,0,0,17.72,36.22,42.12,42.12,0,0,0,11.8,54.75a33.45,33.45,0,0,0,1,11A42.69,42.69,0,0,0,21,81.64l0,0,0,0a.18.18,0,0,1,.05.07h0v0l.06.08.23.28.08-.21a14.73,14.73,0,0,0,.67-1.63l-.59-.75A36.74,36.74,0,0,1,13.62,57.26Z"/><path class="cls-2" d="M53.6,20.38a36.47,36.47,0,0,1,8.8,2.06,40.5,40.5,0,0,1,11.16,6.35l.63.48,1.58-.54-.28-.3a32.53,32.53,0,0,0-9-6.27,37.72,37.72,0,0,0-14.32-3.71,31.9,31.9,0,0,0-6.63.26c-1.57.25-3.12.56-4.64.95V21.4a37,37,0,0,1,3.88-.8A34.2,34.2,0,0,1,53.6,20.38Z"/><path class="cls-2" d="M87.58,49.33a29.69,29.69,0,0,0-2.33-7c-.07-.14-.16-.28-.28-.49l-.84,1.63c.05.17.08.28.12.38A37.5,37.5,0,0,1,86,62.68a36.3,36.3,0,0,1-4.28,12.17A35.16,35.16,0,0,1,67.82,88.67,36.76,36.76,0,0,1,50,93.21a34.68,34.68,0,0,1-12.3-2.15c-.78-.28-1.55-.62-2.32-1l-2.22-1-.48.72-.42.61,0,.08.39.19,0,0,.3.15.11.05,1,.51.1,0,0,0h0a36.44,36.44,0,0,0,13.55,3.44,37.47,37.47,0,0,0,7.71-.35A38.59,38.59,0,0,0,80.45,80a37.41,37.41,0,0,0,5.79-10.89,38.32,38.32,0,0,0,2-10A36.32,36.32,0,0,0,87.58,49.33Z"/><path class="cls-2" d="M34.82,83.36a25.51,25.51,0,0,0,1.83-4.54,40.33,40.33,0,0,0,1.5-9.25,1.77,1.77,0,0,1,.49-1.19c2-2.15,4-4.32,6-6.49l5.11-5.58c.1-.1.18-.22.34-.12,0,0,0,.05,0,.07q0,11.07,0,22.14a2.09,2.09,0,0,0,0,.25s0,.06,0,.07,0,0,.07,0,.11,0,.14,0c.55-.56,1.1-1.1,1.62-1.68q5.31-5.91,10.6-11.84C67.77,59.39,73,53.56,78,47.63a26.63,26.63,0,0,0,3.2-4.55,20.14,20.14,0,0,0,2.27-6.22,5.89,5.89,0,0,0-.07-2.4,4.26,4.26,0,0,0-4.08-3.3,7.84,7.84,0,0,0-2.55.32,9.25,9.25,0,0,0-4.34,2.66,3.83,3.83,0,0,0-1,2.1,3.32,3.32,0,0,0,0,1.15,3.47,3.47,0,0,0,.34,1A7.41,7.41,0,0,1,72.55,37a6.57,6.57,0,0,1,2.31-2,3.85,3.85,0,0,1,1.06-.36,3.61,3.61,0,0,1,1.68.17,2.13,2.13,0,0,1,1.5,2v.33A10.14,10.14,0,0,1,77.89,42c-.63,1.21-1.28,2.4-2,3.57a73.53,73.53,0,0,1-6.3,8.78c-4.55,5.6-9.5,10.85-14.36,16.18a1.44,1.44,0,0,1-.3.14c0-.41,0-.76,0-1.11,0-5.74,0-11.49,0-17.23a2.17,2.17,0,0,1,.45-1.37c.83-1.08,1.62-2.18,2.41-3.29q2.86-4,5.69-8A9.06,9.06,0,0,0,64.43,38a3.65,3.65,0,0,0,.18-2.52,2.63,2.63,0,0,0-2.16-2,4.76,4.76,0,0,0-.75-.07,7.2,7.2,0,0,0-4.9,1.75,15.69,15.69,0,0,0-4,5.34A21.65,21.65,0,0,0,51.3,44.9a34,34,0,0,0-.68,4.69A7.78,7.78,0,0,1,48.1,55c-.41.37-.76.8-1.14,1.21q-4.23,4.64-8.45,9.29c-.09.1-.15.24-.36.21a2.52,2.52,0,0,1-.07-1V5l-.56.7h0L28.21,17.33l-.84,1.06,2.89-1.29,2.85-1.26V16c0,.36,0,.66,0,1V61.49c0,2.94,0,5.88,0,8.82a1.79,1.79,0,0,1-.51,1.34c-1,1.06-1.92,2.15-2.87,3.24a36.28,36.28,0,0,0-4,5.41,25.12,25.12,0,0,0-2.3,4.79c-.67,2,.38,3.26,2.17,3.62l.16,0a8.34,8.34,0,0,0,5.83-1.48A11,11,0,0,0,34.82,83.36ZM55.69,41.68a11.28,11.28,0,0,1,1.27-3,6.76,6.76,0,0,1,1.35-1.57,4,4,0,0,1,2.9-1l.24,0a.85.85,0,0,1,.17.08,2,2,0,0,1,.11,1.05,8.58,8.58,0,0,1-1.22,4,19.67,19.67,0,0,1-1.93,2.6q-1.47,1.7-3,3.38s-.09.06-.18.12c-.06-.09-.11-.13-.11-.17A15.88,15.88,0,0,1,55.69,41.68ZM31.55,82.16a7.77,7.77,0,0,1-1.39,2.35,3.88,3.88,0,0,1-3.56,1.38l-.34-.09a1.92,1.92,0,0,1-.08-1,9.44,9.44,0,0,1,1.21-3.94A13.34,13.34,0,0,1,29,78.58c1.22-1.4,2.47-2.78,3.71-4.16,0,0,.1,0,.18,0a1.6,1.6,0,0,1,0,.21A23.28,23.28,0,0,1,31.55,82.16Z"/></svg>